<svg>
    <symbol id="icon-complete"  width="28" height="26" viewBox="0 0 28 26" fill="none" xmlns="http://www.w3.org/2000/svg">
        <circle cx="12" cy="13.5" r="11.5" stroke="#06B16E"/>
        <path d="M6 9.81034L11.775 15.5L27 0.5" stroke="#06B16E"/>
    </symbol>
        <symbol id="icon-ok-hand"  width="196" height="212" viewBox="0 0 196 212" fill="none" xmlns="http://www.w3.org/2000/svg">
        <path d="M95.0258 274.606L116.477 173.471C126.163 170.565 148.143 149.771 160.756 122.272C176.522 87.8982 177.609 60.6892 174.025 58.0942C164.35 51.0894 162.489 79.0702 145.597 110.018C151.973 96.6649 168.501 42.815 160.659 34.9677C149.829 24.1305 134.338 82.3238 128.909 100.472C133.14 82.6761 151.937 17.853 136.423 16.157C126.438 15.0652 115.821 64.2376 110.361 86.5916C112.651 75.1078 111.729 60.7064 98.6771 55.5132C79.5958 47.9207 70.3473 79.901 79.5664 83.7596C83.0291 85.2089 87.7412 81.9936 91.154 77.7749C92.2042 82.6208 91.0998 96.9574 78.2807 115.537C76.6687 115.366 74.9832 115.311 73.2245 115.381C76.0737 110.926 80.1575 97.875 80.5594 91.2669C81.0619 83.0069 66.8154 77.0442 52.4333 111.406C44.7894 129.669 59.3465 146.342 69.2466 155.476L30.6609 247.666L95.0258 274.606Z" fill="#E9D4FF"/>
        <path d="M95.0258 274.606L116.477 173.471C126.163 170.565 148.143 149.771 160.756 122.272C176.522 87.8982 177.609 60.6892 174.025 58.0942C164.35 51.0894 162.489 79.0702 145.597 110.018C151.973 96.6649 168.501 42.815 160.659 34.9677C149.829 24.1305 134.338 82.3238 128.909 100.472C133.14 82.6761 151.937 17.853 136.423 16.157C125.499 14.9626 113.818 73.9322 108.962 92.1233C112.615 80.2574 113.942 61.5871 98.6771 55.5132C79.5958 47.9207 70.3473 79.901 79.5664 83.7596C85.2654 86.1449 94.3487 75.895 95.4542 69.3319M30.6609 247.666L69.2466 155.476C59.3465 146.342 44.7894 129.669 52.4333 111.406C66.8154 77.0442 81.0619 83.0069 80.5594 91.2669C80.1575 97.875 76.0737 110.926 73.2245 115.381C94.4558 114.534 105.011 132.003 104.509 149.355" stroke="#271A58"/>
        <path d="M78.8491 86.4133C75.7907 90.5831 68.0061 98.1064 61.3356 94.8418" stroke="#271A58"/>
        <path d="M78.0828 66.5915C80.4233 68.8338 83.8943 75.3635 79.0536 83.5445" stroke="#271A58"/>
        <path d="M91.4025 77.682C91.3784 83.7784 91.7511 94.1775 78.2179 115.697" stroke="#271A58"/>
    </symbol>
        <symbol id="icon-close"  width="20" height="20" viewBox="0 0 25 25" xmlns="http://www.w3.org/2000/svg" xmlns:xlink="http://www.w3.org/1999/xlink" xmlns:sketch="http://www.bohemiancoding.com/sketch/ns" fill="#000000">
        <g id="SVGRepo_bgCarrier" stroke-width="0"></g><g id="SVGRepo_tracerCarrier" stroke-linecap="round" stroke-linejoin="round"></g><g id="SVGRepo_iconCarrier"><title>cross</title><desc>Created with Sketch Beta.</desc><defs></defs><g id="Page-1" stroke="none" stroke-width="1" fill="none" fill-rule="evenodd" sketch:type="MSPage"><g id="Icon-Set-Filled" sketch:type="MSLayerGroup" transform="translate(-469.000000, -1041.000000)" fill="#b1aaaa"><path d="M487.148,1053.48 L492.813,1047.82 C494.376,1046.26 494.376,1043.72 492.813,1042.16 C491.248,1040.59 488.712,1040.59 487.148,1042.16 L481.484,1047.82 L475.82,1042.16 C474.257,1040.59 471.721,1040.59 470.156,1042.16 C468.593,1043.72 468.593,1046.26 470.156,1047.82 L475.82,1053.48 L470.156,1059.15 C468.593,1060.71 468.593,1063.25 470.156,1064.81 C471.721,1066.38 474.257,1066.38 475.82,1064.81 L481.484,1059.15 L487.148,1064.81 C488.712,1066.38 491.248,1066.38 492.813,1064.81 C494.376,1063.25 494.376,1060.71 492.813,1059.15 L487.148,1053.48" id="cross" sketch:type="MSShapeGroup"></path></g></g></g>
    </symbol>
    

</svg>