<svg width="280" height="38" viewBox="0 0 280 38" fill="none" xmlns="http://www.w3.org/2000/svg">
<rect x="1" y="1" width="278" height="36" rx="18" fill="#F9EBFF" stroke="#9A48F1" stroke-width="2"/>
<path d="M1 19.5C1 9.83502 8.83502 2 18.5 2H137V37H18.5C8.83502 37 1 29.165 1 19.5Z" fill="#9A48F1"/>
<path d="M76.96 23.48V25.688H83.008V29H85.408V25.688H87.712V23.48H85.408V11H81.784L76.96 23.48ZM78.952 23.48L83.008 12.872V23.48H78.952ZM92.1648 13.208H98.8368V11H89.8608V20.72H92.1648C92.3328 19.736 93.0288 18.872 94.4688 18.872C95.9088 18.872 96.8688 19.76 96.8688 22.136V23.912C96.8688 26.072 95.8848 27.032 94.4688 27.032C92.9568 27.032 92.0208 26.096 92.0208 23.816V23.528H89.6208V24.2C89.6208 27.488 91.7568 29.24 94.4688 29.24C97.1328 29.24 99.2688 27.44 99.2688 23.912V21.992C99.2688 18.56 97.8288 16.76 95.0928 16.76C93.7728 16.76 92.7648 17.36 92.1648 18.296V13.208ZM104.577 20.48C106.689 20.48 108.225 18.992 108.225 15.68C108.225 12.392 106.689 10.856 104.577 10.856C102.465 10.856 100.905 12.392 100.905 15.68C100.905 18.992 102.465 20.48 104.577 20.48ZM102.993 29H104.433L116.913 11H115.473L102.993 29ZM104.577 18.752C103.497 18.752 102.825 17.816 102.825 15.68C102.825 13.52 103.497 12.536 104.577 12.536C105.657 12.536 106.305 13.52 106.305 15.68C106.305 17.816 105.657 18.752 104.577 18.752ZM115.329 29.144C117.441 29.144 118.977 27.656 118.977 24.344C118.977 21.056 117.441 19.52 115.329 19.52C113.217 19.52 111.657 21.056 111.657 24.344C111.657 27.656 113.217 29.144 115.329 29.144ZM115.329 27.416C114.249 27.416 113.577 26.48 113.577 24.344C113.577 22.184 114.249 21.2 115.329 21.2C116.409 21.2 117.057 22.184 117.057 24.344C117.057 26.48 116.409 27.416 115.329 27.416Z" fill="white"/>
</svg>
