<svg width="412" height="532" viewBox="0 0 412 532" fill="none" xmlns="http://www.w3.org/2000/svg">
<g filter="url(#filter0_dd_26_1290)">
<g clip-path="url(#clip0_26_1290)">
<rect x="26" y="26" width="360" height="480" rx="29.9978" fill="white"/>
<circle cx="298.526" cy="189.916" r="69.5956" transform="rotate(35.3222 298.526 189.916)" fill="#565EEF"/>
<circle cx="114.307" cy="321.769" r="69.5956" transform="rotate(35.3222 114.307 321.769)" fill="#565EEF"/>
<rect x="254.016" y="243.45" width="139.191" height="140.953" transform="rotate(35.3222 254.016 243.45)" fill="#333BCB"/>
<g filter="url(#filter1_b_26_1290)">
<path fill-rule="evenodd" clip-rule="evenodd" d="M56 26C39.4315 26 26 39.4315 26 56V476C26 492.569 39.4315 506 56 506H356C372.569 506 386 492.569 386 476V56C386 39.4315 372.569 26 356 26H56ZM256 186C200.772 186 156 230.772 156 286V416H356V286C356 230.772 311.228 186 256 186Z" fill="#CDCDCD" fill-opacity="0.1"/>
</g>
<g style="mix-blend-mode:multiply" opacity="0.36" filter="url(#filter2_i_26_1290)">
<path d="M156 286C156 230.772 200.772 186 256 186C311.228 186 356 230.772 356 286V416H156V286Z" fill="white"/>
</g>
</g>
</g>
<defs>
<filter id="filter0_dd_26_1290" x="0.00117779" y="0" width="411.999" height="531.999" filterUnits="userSpaceOnUse" color-interpolation-filters="sRGB">
<feFlood flood-opacity="0" result="BackgroundImageFix"/>
<feColorMatrix in="SourceAlpha" type="matrix" values="0 0 0 0 0 0 0 0 0 0 0 0 0 0 0 0 0 0 127 0" result="hardAlpha"/>
<feOffset dx="-10" dy="10"/>
<feGaussianBlur stdDeviation="7.99941"/>
<feColorMatrix type="matrix" values="0 0 0 0 0 0 0 0 0 0 0 0 0 0 0 0 0 0 0.1 0"/>
<feBlend mode="normal" in2="BackgroundImageFix" result="effect1_dropShadow_26_1290"/>
<feColorMatrix in="SourceAlpha" type="matrix" values="0 0 0 0 0 0 0 0 0 0 0 0 0 0 0 0 0 0 127 0" result="hardAlpha"/>
<feOffset dx="10" dy="-10"/>
<feGaussianBlur stdDeviation="8"/>
<feColorMatrix type="matrix" values="0 0 0 0 0 0 0 0 0 0 0 0 0 0 0 0 0 0 0.1 0"/>
<feBlend mode="normal" in2="effect1_dropShadow_26_1290" result="effect2_dropShadow_26_1290"/>
<feBlend mode="normal" in="SourceGraphic" in2="effect2_dropShadow_26_1290" result="shape"/>
</filter>
<filter id="filter1_b_26_1290" x="-3.03731" y="-3.03731" width="418.075" height="538.075" filterUnits="userSpaceOnUse" color-interpolation-filters="sRGB">
<feFlood flood-opacity="0" result="BackgroundImageFix"/>
<feGaussianBlur in="BackgroundImageFix" stdDeviation="14.5187"/>
<feComposite in2="SourceAlpha" operator="in" result="effect1_backgroundBlur_26_1290"/>
<feBlend mode="normal" in="SourceGraphic" in2="effect1_backgroundBlur_26_1290" result="shape"/>
</filter>
<filter id="filter2_i_26_1290" x="156" y="186" width="211.222" height="241.222" filterUnits="userSpaceOnUse" color-interpolation-filters="sRGB">
<feFlood flood-opacity="0" result="BackgroundImageFix"/>
<feBlend mode="normal" in="SourceGraphic" in2="BackgroundImageFix" result="shape"/>
<feColorMatrix in="SourceAlpha" type="matrix" values="0 0 0 0 0 0 0 0 0 0 0 0 0 0 0 0 0 0 127 0" result="hardAlpha"/>
<feOffset dx="11.2216" dy="11.2216"/>
<feGaussianBlur stdDeviation="6.07837"/>
<feComposite in2="hardAlpha" operator="arithmetic" k2="-1" k3="1"/>
<feColorMatrix type="matrix" values="0 0 0 0 0.337255 0 0 0 0 0.368627 0 0 0 0 0.937255 0 0 0 0.5 0"/>
<feBlend mode="normal" in2="shape" result="effect1_innerShadow_26_1290"/>
</filter>
<clipPath id="clip0_26_1290">
<rect x="26" y="26" width="360" height="480" rx="29.9978" fill="white"/>
</clipPath>
</defs>
</svg>
